# xmcd
#
# Track frame offsets:
#	150
#	10865
#	20140
#	31915
#	44042
#	54814
#	67296
#	80039
#	89653
#	101671
#	112507
#	126286
#
# Disc length: 1830 seconds
#
# Revision: 1
# Processed by: cddbd v1.5.2PL0 Copyright (c) Steve Scherf et al.
# Submitted via: audiograbber 1.83.01
#
DISCID=a007240c
DTITLE=Porter Wagoner - The Best Of
DYEAR=1966
DGENRE=Country
TTITLE0=Y'All Come
TTITLE1=Sorrow On The Rocks
TTITLE2=Misery Loves Company
TTITLE3=I've Enjoyed As Much Of This As I Can Stand
TTITLE4=Green, Green Grass Of Home
TTITLE5=Company's Comin'
TTITLE6=A Satisfied Mind
TTITLE7=Dooley
TTITLE8=I Thought I Heard You Call My Name
TTITLE9=Uncle Pen
TTITLE10=Skid Row Joe
TTITLE11=I'll Go Down Swinging
EXTD=
EXTT0=
EXTT1=
EXTT2=
EXTT3=
EXTT4=
EXTT5=
EXTT6=
EXTT7=
EXTT8=
EXTT9=
EXTT10=
EXTT11=
PLAYORDER=
